<svg xmlns="http://www.w3.org/2000/svg" viewBox="0 0 1080 1920" width="1080" height="1920">
  <defs>
    <linearGradient id="grad" x1="0%" y1="0%" x2="100%" y2="100%">
      <stop offset="0%" style="stop-color:#059669;stop-opacity:1" />
      <stop offset="100%" style="stop-color:#064e3b;stop-opacity:1" />
    </linearGradient>
  </defs>
  <rect width="1080" height="1920" fill="url(#grad)" />
  <g fill="#ffffff" opacity="0.05">
    <rect x="100" y="200" width="80" height="80" rx="20" ry="20" />
    <rect x="300" y="400" width="60" height="60" rx="15" ry="15" />
    <rect x="500" y="600" width="90" height="90" rx="22" ry="22" />
    <rect x="700" y="800" width="70" height="70" rx="18" ry="18" />
    <rect x="900" y="1000" width="50" height="50" rx="12" ry="12" />
    <rect x="200" y="1200" width="100" height="100" rx="25" ry="25" />
    <rect x="400" y="1400" width="65" height="65" rx="16" ry="16" />
    <rect x="600" y="1600" width="85" height="85" rx="21" ry="21" />
    <rect x="800" y="1800" width="75" height="75" rx="19" ry="19" />
    <rect x="150" y="300" width="55" height="55" rx="14" ry="14" />
    <rect x="350" y="500" width="95" height="95" rx="24" ry="24" />
    <rect x="550" y="700" width="45" height="45" rx="11" ry="11" />
    <rect x="750" y="900" width="105" height="105" rx="26" ry="26" />
    <rect x="250" y="1100" width="40" height="40" rx="10" ry="10" />
    <rect x="450" y="1300" width="110" height="110" rx="27" ry="27" />
    <rect x="650" y="1500" width="35" height="35" rx="9" ry="9" />
    <rect x="850" y="1700" width="115" height="115" rx="29" ry="29" />
  </g>
</svg>
