<svg xmlns="http://www.w3.org/2000/svg" viewBox="0 0 1080 1920" width="1080" height="1920">
  <defs>
    <linearGradient id="grad" x1="0%" y1="0%" x2="100%" y2="100%">
      <stop offset="0%" style="stop-color:#7e22ce;stop-opacity:1" />
      <stop offset="100%" style="stop-color:#3b0764;stop-opacity:1" />
    </linearGradient>
  </defs>
  <rect width="1080" height="1920" fill="url(#grad)" />
  <g fill="#ffffff" opacity="0.04">
    <circle cx="100" cy="300" r="50" />
    <circle cx="300" cy="600" r="30" />
    <circle cx="500" cy="900" r="40" />
    <circle cx="700" cy="1200" r="35" />
    <circle cx="900" cy="1500" r="45" />
    <circle cx="200" cy="1800" r="25" />
    <circle cx="400" cy="200" r="20" />
    <circle cx="600" cy="500" r="50" />
    <circle cx="800" cy="800" r="30" />
    <circle cx="100" cy="1100" r="25" />
    <circle cx="300" cy="1400" r="40" />
    <circle cx="500" cy="1700" r="35" />
    <circle cx="900" cy="300" r="20" />
    <circle cx="700" cy="600" r="45" />
    <circle cx="200" cy="900" r="30" />
    <circle cx="400" cy="1200" r="25" />
    <circle cx="600" cy="1500" r="40" />
    <circle cx="800" cy="1800" r="35" />
  </g>
</svg>
