<?xml version="1.0" encoding="UTF-8"?>
<svg width="1920" height="1080" viewBox="0 0 1920 1080" fill="none" xmlns="http://www.w3.org/2000/svg">
  <defs>
    <linearGradient id="macGradient" x1="0" y1="0" x2="1920" y2="1080" gradientUnits="userSpaceOnUse">
      <stop offset="0%" style="stop-color:#1E293B"/>
      <stop offset="50%" style="stop-color:#334155"/>
      <stop offset="100%" style="stop-color:#475569"/>
    </linearGradient>
    <filter id="blur" x="-50%" y="-50%" width="200%" height="200%">
      <feGaussianBlur in="SourceGraphic" stdDeviation="50" />
    </filter>
    <pattern id="dots" x="0" y="0" width="20" height="20" patternUnits="userSpaceOnUse">
      <circle cx="2" cy="2" r="1" fill="white" opacity="0.1"/>
    </pattern>
  </defs>
  
  <!-- Base background -->
  <rect width="1920" height="1080" fill="url(#macGradient)"/>
  
  <!-- Glowing orbs -->
  <g filter="url(#blur)">
    <circle cx="400" cy="300" r="200" fill="#60A5FA" opacity="0.3"/>
    <circle cx="1500" cy="700" r="300" fill="#818CF8" opacity="0.3"/>
    <circle cx="960" cy="540" r="400" fill="#34D399" opacity="0.2"/>
  </g>
  
  <!-- Dot pattern overlay -->
  <rect width="1920" height="1080" fill="url(#dots)"/>
  
  <!-- Dynamic waves -->
  <g opacity="0.1" stroke="white" stroke-width="1" fill="none">
    <path d="M0 300 Q 480 500 960 300 T 1920 300"/>
    <path d="M0 400 Q 480 600 960 400 T 1920 400"/>
    <path d="M0 500 Q 480 700 960 500 T 1920 500"/>
    <path d="M0 600 Q 480 800 960 600 T 1920 600"/>
  </g>
</svg>
