<svg xmlns="http://www.w3.org/2000/svg" viewBox="0 0 1920 1080" width="1920" height="1080">
  <defs>
    <linearGradient id="grad" x1="0%" y1="0%" x2="100%" y2="100%">
      <stop offset="0%" style="stop-color:#1e40af;stop-opacity:1" />
      <stop offset="100%" style="stop-color:#172554;stop-opacity:1" />
    </linearGradient>
  </defs>
  <rect width="1920" height="1080" fill="url(#grad)" />
  <g fill="#ffffff" opacity="0.03">
    <rect x="100" y="100" width="100" height="100" />
    <rect x="300" y="200" width="80" height="80" />
    <rect x="500" y="300" width="120" height="120" />
    <rect x="700" y="150" width="90" height="90" />
    <rect x="900" y="250" width="110" height="110" />
    <rect x="1100" y="100" width="70" height="70" />
    <rect x="1300" y="200" width="130" height="130" />
    <rect x="1500" y="300" width="60" height="60" />
    <rect x="1700" y="150" width="100" height="100" />
    <rect x="200" y="500" width="90" height="90" />
    <rect x="400" y="600" width="70" height="70" />
    <rect x="600" y="700" width="110" height="110" />
    <rect x="800" y="550" width="80" height="80" />
    <rect x="1000" y="650" width="100" height="100" />
    <rect x="1200" y="500" width="120" height="120" />
    <rect x="1400" y="600" width="60" height="60" />
    <rect x="1600" y="700" width="130" height="130" />
  </g>
</svg>
